# xmcd
#
# Track frame offsets: 
#        150
#        8581
#        40602
#        51664
#        75837
#        95447
#        106234
#        126323
#        151823
#        164443
#        186318
#        205895
#        232824
#        255728
#
# Disc length: 3508 seconds
#
# Revision: 1
# Processed by: cddbd v1.5.2PL0 Copyright (c) Steve Scherf et al.
# Submitted via: ExactAudioCopy v0.99pb3
#
DISCID=a80db20e
DTITLE=Geri Allen - Timeless Portraits And Dreams
DYEAR=2006
DGENRE=Jazz
TTITLE0=Oh Freedom
TTITLE1=Melchezedik
TTITLE2=Portraits And Dreams
TTITLE3=Well Done
TTITLE4=La Strada
TTITLE5=I Have A Dream
TTITLE6=Nearly
TTITLE7=In Real Time
TTITLE8=Embraceable You
TTITLE9=Ah-Leu-Cha
TTITLE10=Just For A Thrill
TTITLE11=Our Lady (For Billie Holiday)
TTITLE12=Timeless Portraits And Dreams
TTITLE13=Portraits And Dreams, reprise
EXTD=YEAR: 2006
EXTT0=
EXTT1=
EXTT2=
EXTT3=
EXTT4=
EXTT5=
EXTT6=
EXTT7=
EXTT8=
EXTT9=
EXTT10=
EXTT11=
EXTT12=
EXTT13=
PLAYORDER=
